<svg xmlns="http://www.w3.org/2000/svg" viewBox="0 0 51.89 51.89"><defs><style>.cls-1{fill:#fff;}.cls-2{opacity:0.3;}.cls-3{fill:#1c53b3;}.cls-3,.cls-4{fill-rule:evenodd;}.cls-4,.cls-5{fill:#1e4eab;}</style></defs><title>facebook</title><g id="Layer_2" data-name="Layer 2"><g id="Layer_1-2" data-name="Layer 1"><circle class="cls-1" cx="25.95" cy="25.95" r="24.23" transform="translate(-10.75 25.95) rotate(-45)"/><g class="cls-2"><path class="cls-3" d="M37.42,35.88c-15.39,0-27.18-11.29-30-25.59A24.23,24.23,0,1,0,49,33.45,29.54,29.54,0,0,1,37.42,35.88Z"/></g><path class="cls-4" d="M29.27,17.81c.78,0,1.57,0,2.35,0H32V13.73c-.42,0-.86-.11-1.3-.13-.8,0-1.61-.07-2.41,0a5.85,5.85,0,0,0-3.41,1,5.09,5.09,0,0,0-2,3.41,11.27,11.27,0,0,0-.14,1.75c0,.91,0,1.83,0,2.74v.35h-3.9V27.4h3.88V38.86h4.74V27.42h3.87c.2-1.51.39-3,.6-4.58H31c-1.1,0-3.63,0-3.63,0s0-2.26,0-3.24C27.4,18.26,28.19,17.85,29.27,17.81Z"/><path class="cls-5" d="M26,51.89A25.95,25.95,0,1,1,51.89,26,26,26,0,0,1,26,51.89ZM26,3.43A22.52,22.52,0,1,0,48.46,26,22.54,22.54,0,0,0,26,3.43Z"/></g></g></svg>