<svg xmlns="http://www.w3.org/2000/svg" viewBox="0 0 51.89 51.89"><defs><style>.cls-1{fill:#fff;}.cls-2{opacity:0.3;}.cls-3,.cls-4{fill:#fc4d3f;}.cls-3{fill-rule:evenodd;}</style></defs><title>google</title><g id="Layer_2" data-name="Layer 2"><g id="Layer_1-2" data-name="Layer 1"><circle class="cls-1" cx="25.95" cy="25.95" r="24.23"/><g class="cls-2"><path class="cls-3" d="M37.42,35.88c-15.39,0-27.18-11.29-30-25.59A24.23,24.23,0,1,0,49,33.45,29.54,29.54,0,0,1,37.42,35.88Z"/></g><path class="cls-4" d="M26,51.89A25.95,25.95,0,1,1,51.89,26,26,26,0,0,1,26,51.89ZM26,3.43A22.52,22.52,0,1,0,48.46,26,22.54,22.54,0,0,0,26,3.43Z"/><path class="cls-4" d="M20.51,24.07c0,.05,0,.1,0,.15,0,1.14,0,3.61,0,3.61h5a4.25,4.25,0,0,1-1.84,2.81,5.41,5.41,0,0,1-2.72.88,5.53,5.53,0,0,1-5.89-5.1,5.4,5.4,0,0,1,.11-1.7,5.54,5.54,0,0,1,6.16-4.31,5.08,5.08,0,0,1,2.75,1.33L26.81,19a11.42,11.42,0,0,0-1.66-1.21,8.86,8.86,0,0,0-4.44-1.21c-.3,0-.6,0-.89,0a7.17,7.17,0,0,0-1.54.24,9.38,9.38,0,0,0-7.09,8.54,8.88,8.88,0,0,0,.19,2.52A9.33,9.33,0,0,0,15,33.52a9.21,9.21,0,0,0,5,1.77A10,10,0,0,0,23.11,35a8.18,8.18,0,0,0,4.6-3,10.06,10.06,0,0,0,1.6-7.89Z"/><polygon class="cls-4" points="40.63 24.19 37.46 24.19 37.46 21.02 37.46 20.93 37.37 20.93 35 20.93 34.91 20.93 34.91 21.02 34.91 24.19 31.73 24.19 31.64 24.19 31.64 24.28 31.64 26.65 31.64 26.74 31.73 26.74 34.91 26.74 34.91 29.91 34.91 30.01 35 30.01 37.37 30.01 37.46 30.01 37.46 29.91 37.46 26.74 40.63 26.74 40.72 26.74 40.72 26.65 40.72 24.28 40.72 24.19 40.63 24.19"/></g></g></svg>