<svg xmlns="http://www.w3.org/2000/svg" viewBox="0 0 51.89 51.89"><defs><style>.cls-1{fill:#fff;}.cls-2{opacity:0.3;}.cls-3,.cls-4{fill:#c32194;}.cls-3{fill-rule:evenodd;}</style></defs><title>instagram</title><g id="Layer_2" data-name="Layer 2"><g id="Layer_1-2" data-name="Layer 1"><circle class="cls-1" cx="25.95" cy="25.95" r="24.23" transform="translate(-10.75 25.95) rotate(-45)"/><g class="cls-2"><path class="cls-3" d="M37.42,35.88c-15.39,0-27.18-11.29-30-25.59A24.23,24.23,0,1,0,49,33.45,29.54,29.54,0,0,1,37.42,35.88Z"/></g><path class="cls-4" d="M26,51.89A25.95,25.95,0,1,1,51.89,26,26,26,0,0,1,26,51.89ZM26,3.43A22.52,22.52,0,1,0,48.46,26,22.54,22.54,0,0,0,26,3.43Z"/><path class="cls-4" d="M37,20.36a5.91,5.91,0,0,0-1.81-3.82,6.21,6.21,0,0,0-4.11-1.67A81.26,81.26,0,0,0,20,15a5.67,5.67,0,0,0-4.85,4.36c-.53,1.9-.43,10.69-.11,12.58a5.66,5.66,0,0,0,4.5,4.89c1.77.45,10.46.4,12.41.08a5.68,5.68,0,0,0,4.91-4.48C37.33,30.46,37.15,22.13,37,20.36Zm-2.06,11.2A3.8,3.8,0,0,1,31.34,35c-1.81.2-9.88.31-11.56-.16A3.69,3.69,0,0,1,17,31.62a74.82,74.82,0,0,1,0-11.31,3.78,3.78,0,0,1,3.55-3.37,79.56,79.56,0,0,1,11,0A3.79,3.79,0,0,1,35,20.56,80.83,80.83,0,0,1,34.91,31.56ZM26,20.2A5.75,5.75,0,1,0,31.69,26,5.74,5.74,0,0,0,26,20.2Zm0,9.46A3.72,3.72,0,1,1,29.66,26,3.73,3.73,0,0,1,25.91,29.66ZM33.26,20a1.33,1.33,0,0,1-1.34,1.34A1.34,1.34,0,0,1,30.57,20a1.36,1.36,0,0,1,1.35-1.35A1.34,1.34,0,0,1,33.26,20Z"/><path class="cls-4" d="M37,20.36a5.91,5.91,0,0,0-1.81-3.82,6.21,6.21,0,0,0-4.11-1.67A81.26,81.26,0,0,0,20,15a5.67,5.67,0,0,0-4.85,4.36c-.53,1.9-.43,10.69-.11,12.58a5.66,5.66,0,0,0,4.5,4.89c1.77.45,10.46.4,12.41.08a5.68,5.68,0,0,0,4.91-4.48C37.33,30.46,37.15,22.13,37,20.36Zm-2.06,11.2A3.8,3.8,0,0,1,31.34,35c-1.81.2-9.88.31-11.56-.16A3.69,3.69,0,0,1,17,31.62a74.82,74.82,0,0,1,0-11.31,3.78,3.78,0,0,1,3.55-3.37,79.56,79.56,0,0,1,11,0A3.79,3.79,0,0,1,35,20.56,80.83,80.83,0,0,1,34.91,31.56ZM26,20.2A5.75,5.75,0,1,0,31.69,26,5.74,5.74,0,0,0,26,20.2Zm0,9.46A3.72,3.72,0,1,1,29.66,26,3.73,3.73,0,0,1,25.91,29.66ZM33.26,20a1.33,1.33,0,0,1-1.34,1.34A1.34,1.34,0,0,1,30.57,20a1.36,1.36,0,0,1,1.35-1.35A1.34,1.34,0,0,1,33.26,20Z"/></g></g></svg>