<svg xmlns="http://www.w3.org/2000/svg" viewBox="0 0 51.89 51.89"><defs><style>.cls-1{fill:#fff;}.cls-2{opacity:0.3;}.cls-3,.cls-4{fill:#007ab5;}.cls-3{fill-rule:evenodd;}</style></defs><title>linkedin</title><g id="Layer_2" data-name="Layer 2"><g id="Layer_1-2" data-name="Layer 1"><circle class="cls-1" cx="25.95" cy="25.95" r="24.23"/><g class="cls-2"><path class="cls-3" d="M37.42,35.88c-15.39,0-27.18-11.29-30-25.59A24.23,24.23,0,1,0,49,33.45,29.54,29.54,0,0,1,37.42,35.88Z"/></g><path class="cls-4" d="M26,51.89A25.95,25.95,0,1,1,51.89,26,26,26,0,0,1,26,51.89ZM26,3.43A22.52,22.52,0,1,0,48.46,26,22.54,22.54,0,0,0,26,3.43Z"/><path class="cls-4" d="M16,21.55h4.26V35.23H16Zm2.13-6.8a2.47,2.47,0,1,1-2.47,2.47,2.48,2.48,0,0,1,2.47-2.47"/><path class="cls-4" d="M23,21.55H27v1.87h0a4.49,4.49,0,0,1,4-2.21c4.31,0,5.1,2.83,5.1,6.52v7.5H32V28.58C32,27,31.93,25,29.75,25s-2.55,1.73-2.55,3.52v6.76H23Z"/></g></g></svg>