<svg xmlns="http://www.w3.org/2000/svg" viewBox="0 0 51.89 51.89"><defs><style>.cls-1{fill:#fff;}.cls-2{opacity:0.3;}.cls-3,.cls-4{fill:#1ba5d4;}.cls-3{fill-rule:evenodd;}</style></defs><title>twiter</title><g id="Layer_2" data-name="Layer 2"><g id="Layer_1-2" data-name="Layer 1"><circle class="cls-1" cx="25.95" cy="25.95" r="24.23" transform="translate(-10.75 25.95) rotate(-45)"/><g class="cls-2"><path class="cls-3" d="M37.42,35.88c-15.39,0-27.18-11.29-30-25.59A24.23,24.23,0,1,0,49,33.45,29.54,29.54,0,0,1,37.42,35.88Z"/></g><path class="cls-4" d="M26,51.89A25.95,25.95,0,1,1,51.89,26,26,26,0,0,1,26,51.89ZM26,3.43A22.52,22.52,0,1,0,48.46,26,22.54,22.54,0,0,0,26,3.43Z"/><path class="cls-3" d="M22,31.91a4.81,4.81,0,0,1-4.47-3.34,4.93,4.93,0,0,0,2.06-.06l.07,0a4.76,4.76,0,0,1-3.12-2.2,4.61,4.61,0,0,1-.71-2.56,4.76,4.76,0,0,0,2.14.58,4.81,4.81,0,0,1-2-2.92,4.72,4.72,0,0,1,.52-3.48,13.76,13.76,0,0,0,9.92,5c0-.19-.06-.36-.08-.53a4.71,4.71,0,0,1,.7-3.15,4.64,4.64,0,0,1,3.27-2.17,4.72,4.72,0,0,1,4.21,1.34.24.24,0,0,0,.25.08,9.74,9.74,0,0,0,2.8-1.08l.07,0h0A4.9,4.9,0,0,1,35.6,20a9.26,9.26,0,0,0,2.68-.72l0,0-.56.73A9.19,9.19,0,0,1,36,21.68a.15.15,0,0,0-.07.15A15.32,15.32,0,0,1,35.83,24a14.51,14.51,0,0,1-1.24,4.28A13.89,13.89,0,0,1,32,32a12.86,12.86,0,0,1-6.61,3.68A14.18,14.18,0,0,1,15,34l-.12-.08a9.76,9.76,0,0,0,4.82-.66A9.37,9.37,0,0,0,22,31.91Z"/></g></g></svg>